<svg width="474" height="182" viewBox="0 0 474 182" fill="none" xmlns="http://www.w3.org/2000/svg">
<path d="M95 150C107.467 152.275 125.476 164.297 157.5 181.5C170.625 180.081 176.291 174.033 185.5 160.5L154 105C145.075 114.186 139.756 117.192 130 118.5C152.695 80.3957 165.065 59.2192 183.5 23.5C177.962 7.90936 171.91 3.27547 157.5 0C129.535 16.349 113.5 28 92 34.5C66.1441 22.7183 51.8778 14.7054 26.5 0C8.6203 6.12878 3.51835 12.4546 2 28C11.685 44.3368 18.2142 55.101 31.5 77C39.9277 67.8899 45.1853 65.6271 55 64L0 158C5.56092 173.737 16.2246 179.33 29 181.5C67.2607 159.149 85.0846 147.612 95 150Z" fill="#FFC6FE"/>
<path d="M126.158 95.7043C126.094 100.184 125.23 104.408 123.566 108.376C121.902 112.28 119.534 115.736 116.462 118.744C113.39 121.752 109.646 124.12 105.23 125.848C100.878 127.512 95.8864 128.344 90.2544 128.344C84.5584 128.344 79.2784 127.48 74.4144 125.752C69.5504 124.024 65.2944 121.56 61.6464 118.36C58.0624 115.096 55.2784 111.16 53.2944 106.552C51.3104 101.944 50.3184 96.7603 50.3184 91.0003C50.3184 85.2403 51.3104 80.0563 53.2944 75.4483C55.3424 70.8403 58.1904 66.9363 61.8384 63.7363C65.4864 60.4723 69.7744 57.9763 74.7024 56.2483C79.6304 54.5203 85.0384 53.6562 90.9264 53.6562C98.2864 53.6562 104.718 54.8723 110.222 57.3043C115.79 59.6723 120.27 62.9363 123.662 67.0963C127.054 71.2563 129.134 76.0243 129.902 81.4003H117.038C116.334 78.0083 114.798 75.0643 112.43 72.5683C110.126 70.0723 107.15 68.1523 103.502 66.8083C99.8544 65.4643 95.6304 64.7923 90.8304 64.7923C85.1984 64.7923 80.3024 65.8483 76.1424 67.9603C72.0464 70.0083 68.8464 72.9843 66.5424 76.8883C64.3024 80.7923 63.1824 85.4963 63.1824 91.0003C63.1824 96.5043 64.3344 101.24 66.6384 105.208C69.0064 109.176 72.3344 112.216 76.6224 114.328C80.9104 116.44 85.9664 117.496 91.7904 117.496C97.4224 117.496 102.35 116.536 106.574 114.616C110.798 112.696 114.126 110.04 116.558 106.648C118.99 103.192 120.302 99.1923 120.494 94.6483L126.158 95.7043ZM94.2864 101.176V91.5763H130.67V127H121.262L119.726 97.1443L122.702 101.176H94.2864ZM142.506 88.1203H164.874V98.3923H142.506V88.1203Z" fill="white"/>
<path d="M169.37 127V117.304L222.554 61.3363L230.714 65.5603H169.754V55.0002H235.706V64.6003L182.426 120.76L175.418 116.44H235.994V127H169.37ZM283.596 128.344C275.404 128.344 268.204 126.776 261.996 123.64C255.788 120.504 250.956 116.152 247.5 110.584C244.044 104.952 242.316 98.4243 242.316 91.0003C242.316 83.5763 244.044 77.0803 247.5 71.5123C250.956 65.8803 255.788 61.4963 261.996 58.3603C268.204 55.2243 275.404 53.6562 283.596 53.6562C291.788 53.6562 298.988 55.2243 305.196 58.3603C311.404 61.4963 316.236 65.8803 319.692 71.5123C323.148 77.0803 324.876 83.5763 324.876 91.0003C324.876 98.4243 323.148 104.952 319.692 110.584C316.236 116.152 311.404 120.504 305.196 123.64C298.988 126.776 291.788 128.344 283.596 128.344ZM283.596 117.016C289.42 117.016 294.444 115.96 298.668 113.848C302.892 111.736 306.156 108.728 308.46 104.824C310.828 100.92 312.012 96.3123 312.012 91.0003C312.012 85.6883 310.828 81.0803 308.46 77.1763C306.156 73.2723 302.892 70.2643 298.668 68.1523C294.444 66.0403 289.42 64.9843 283.596 64.9843C277.836 64.9843 272.812 66.0403 268.524 68.1523C264.3 70.2643 261.004 73.2723 258.636 77.1763C256.332 81.0803 255.18 85.6883 255.18 91.0003C255.18 96.3123 256.332 100.92 258.636 104.824C261.004 108.728 264.3 111.736 268.524 113.848C272.812 115.96 277.836 117.016 283.596 117.016ZM343.331 86.4883H395.075V97.6243H343.331V86.4883ZM396.611 55.0002V66.1363H342.947L349.859 58.9363V127H337.187V55.0002H396.611ZM431.482 60.8563H444.154V127H431.482V60.8563ZM401.722 55.0002H473.914V66.1363H401.722V55.0002Z" fill="white"/>
</svg>
