<svg width="381" height="184" viewBox="0 0 381 184" fill="none" xmlns="http://www.w3.org/2000/svg">
<path d="M96 151C108.467 153.275 126.476 165.297 158.5 182.5C171.625 181.081 177.291 175.033 186.5 161.5L155 106C146.075 115.186 140.756 118.192 131 119.5C153.695 81.3957 166.065 60.2192 184.5 24.5C178.962 8.90936 172.91 4.27547 158.5 1C130.535 17.349 114.5 29 93 35.5C67.1441 23.7183 52.8778 15.7054 27.5 1C9.6203 7.12878 4.51835 13.4546 3 29C12.685 45.3368 19.2142 56.101 32.5 78C40.9277 68.8899 46.1853 66.6271 56 65L1 159C6.56092 174.737 17.2246 180.33 30 182.5C68.2607 160.149 86.0846 148.612 96 151Z" fill="#FF8636" stroke="#FF8636"/>
<path d="M94.8409 80.2273C94.5455 79.0227 94.0795 77.9659 93.4432 77.0568C92.8068 76.125 92.0114 75.3409 91.0568 74.7045C90.125 74.0455 89.0341 73.5568 87.7841 73.2386C86.5568 72.8977 85.2045 72.7273 83.7273 72.7273C80.5455 72.7273 77.8295 73.4886 75.5795 75.0114C73.3523 76.5341 71.6477 78.7273 70.4659 81.5909C69.3068 84.4545 68.7273 87.9091 68.7273 91.9545C68.7273 96.0455 69.2841 99.5455 70.3977 102.455C71.5114 105.364 73.1705 107.591 75.375 109.136C77.5795 110.682 80.3182 111.455 83.5909 111.455C86.4773 111.455 88.875 111.034 90.7841 110.193C92.7159 109.352 94.1591 108.159 95.1136 106.614C96.0682 105.068 96.5455 103.25 96.5455 101.159L99.8182 101.5H83.8636V88H114.818V97.6818C114.818 104.045 113.466 109.489 110.761 114.011C108.08 118.511 104.375 121.966 99.6477 124.375C94.9432 126.761 89.5455 127.955 83.4545 127.955C76.6591 127.955 70.6932 126.511 65.5568 123.625C60.4205 120.739 56.4091 116.625 53.5227 111.284C50.6591 105.943 49.2273 99.5909 49.2273 92.2273C49.2273 86.4545 50.1023 81.3409 51.8523 76.8864C53.625 72.4318 56.0795 68.6705 59.2159 65.6023C62.3523 62.5114 65.9773 60.1818 70.0909 58.6136C74.2045 57.0227 78.6136 56.2273 83.3182 56.2273C87.4545 56.2273 91.2955 56.8182 94.8409 58C98.4091 59.1591 101.557 60.8182 104.284 62.9773C107.034 65.1136 109.25 67.6477 110.932 70.5795C112.614 73.5114 113.636 76.7273 114 80.2273H94.8409ZM123.929 127V116.5L156.929 72.4545H124.065V57.1818H181.065V67.6818L148.065 111.727H180.929V127H123.929ZM254.668 92.0909C254.668 99.8636 253.156 106.42 250.134 111.761C247.111 117.08 243.031 121.114 237.895 123.864C232.759 126.591 227.031 127.955 220.713 127.955C214.349 127.955 208.599 126.58 203.463 123.83C198.349 121.057 194.281 117.011 191.259 111.693C188.259 106.352 186.759 99.8182 186.759 92.0909C186.759 84.3182 188.259 77.7727 191.259 72.4545C194.281 67.1136 198.349 63.0795 203.463 60.3523C208.599 57.6023 214.349 56.2273 220.713 56.2273C227.031 56.2273 232.759 57.6023 237.895 60.3523C243.031 63.0795 247.111 67.1136 250.134 72.4545C253.156 77.7727 254.668 84.3182 254.668 92.0909ZM235.168 92.0909C235.168 87.9091 234.611 84.3864 233.497 81.5227C232.406 78.6364 230.781 76.4545 228.622 74.9773C226.486 73.4773 223.849 72.7273 220.713 72.7273C217.577 72.7273 214.929 73.4773 212.77 74.9773C210.634 76.4545 209.009 78.6364 207.895 81.5227C206.804 84.3864 206.259 87.9091 206.259 92.0909C206.259 96.2727 206.804 99.8068 207.895 102.693C209.009 105.557 210.634 107.739 212.77 109.239C214.929 110.716 217.577 111.455 220.713 111.455C223.849 111.455 226.486 110.716 228.622 109.239C230.781 107.739 232.406 105.557 233.497 102.693C234.611 99.8068 235.168 96.2727 235.168 92.0909ZM263.438 127V57.1818H312.528V72.4545H282.392V84.4545H309.528V99.7273H282.392V127H263.438ZM317.591 72.4545V57.1818H378.273V72.4545H357.273V127H338.591V72.4545H317.591Z" fill="white"/>
</svg>
