<svg xmlns="http://www.w3.org/2000/svg" width="40" height="40" fill="none"><path fill="#ccc" d="M18.952 11.073c-.393-3.374-.81-6.937-.81-11.073h3.715c0 4.09-.414 7.648-.807 11.025-.32 2.753-.627 5.386-.683 8.09 1.865-1.945 3.496-4.008 5.205-6.169 2.107-2.664 4.332-5.477 7.257-8.401l2.626 2.626c-2.892 2.892-5.7 5.115-8.367 7.226l-.002.002c-2.172 1.719-4.25 3.363-6.201 5.234 2.694-.056 5.306-.361 8.042-.68 3.374-.394 6.937-.81 11.073-.81v3.714c-4.09 0-7.648-.414-11.025-.807h-.003c-2.752-.32-5.384-.626-8.087-.683 1.944 1.863 4.006 3.494 6.165 5.202l.003.003c2.664 2.107 5.477 4.332 8.402 7.257l-2.626 2.626c-2.892-2.892-5.115-5.7-7.225-8.366l-.005-.007-.004-.006c-1.717-2.168-3.36-4.242-5.228-6.191.056 2.704.363 5.337.683 8.09.393 3.377.807 6.935.807 11.025h-3.714c0-4.136.416-7.699.81-11.073v-.005c.319-2.734.623-5.345.68-8.037-1.868 1.949-3.51 4.023-5.228 6.191l-.004.006-.005.007c-2.11 2.666-4.333 5.474-7.225 8.366L4.545 32.83c2.925-2.925 5.738-5.15 8.402-7.257l.003-.003c2.16-1.708 4.221-3.339 6.165-5.202-2.704.057-5.337.363-8.09.683-3.377.393-6.935.807-11.025.807v-3.714c4.136 0 7.699.416 11.073.81 2.736.319 5.348.623 8.042.68-1.952-1.871-4.03-3.516-6.203-5.236-2.667-2.11-5.475-4.334-8.367-7.226L7.17 4.545c2.925 2.924 5.15 5.737 7.257 8.401 1.709 2.16 3.34 4.224 5.205 6.169-.056-2.692-.361-5.303-.68-8.037v-.005z" class="ccustom" stop-color="#ccc"/></svg>