<svg xmlns="http://www.w3.org/2000/svg" width="132" height="40" fill="none"><path fill="#ccc" d="M23.23 11.39h2v13.92h6v2h-8V11.39zm14.23 0a6 6 0 1 1 0 12 6 6 0 0 1 0-12zm0 10a4 4 0 1 0-4-4 4 4 0 0 0 4 3.98v.02zm-4 3.94h8v2h-8v-2zm25.6 2h-2V25.9a7.69 7.69 0 0 1-4.4 1.39 8 8 0 1 1 6-13.23l-1.47 1.31a5.999 5.999 0 1 0-4.46 10 5.77 5.77 0 0 0 4.38-2h-5.4v-2h7.37l-.02 5.96zm7.36-15.9a6 6 0 1 1-6 6 6 6 0 0 1 6.02-6.04l-.02.04zm0 10a4 4 0 1 0-4-4 4 4 0 0 0 4.02 3.94l-.02.06zm-4 3.94h8v2h-8v-2zm12.13-13.98h2v15.9h-2v-15.9zm4.77 0h2c.103-.01.207-.01.31 0a6 6 0 1 1 0 11.93h-.31v4h-2V11.39zm2 2v7.91h.31a4 4 0 1 0 0-7.93 1.467 1.467 0 0 0-.32.07l.01-.05zm14.41-.85-1.48 1.17a1.94 1.94 0 0 0-3.33 1.13V15c0 .88.61 1.47 1.8 1.55 4.58.28 6.68 2.43 6.68 5.27V22a5.9 5.9 0 0 1-10.17 3.42l1.53-1.18a3.6 3.6 0 0 0 2.8 1.14A3.74 3.74 0 0 0 97.48 22v-.14c0-2.67-2.62-3.16-4.89-3.38-2.1-.2-3.61-1.51-3.61-3.4V15a3.85 3.85 0 0 1 3.93-3.56 3.74 3.74 0 0 1 2.81 1.15l.01-.05zm11.5 12.72c2.49 0 4.46-2.69 4.46-6v-8h2v8c0 4.4-2.88 7.95-6.42 7.95s-6.42-3.55-6.42-7.95v-8h2v8c-.08 3.36 1.89 6.05 4.37 6.05l.01-.05zm21.81 2h-2v-9.9l-4.61 6-4.61-6v9.93h-2v-15.9l6.6 8.69 6.6-8.69.02 15.87zM13.63 9A5.44 5.44 0 1 0 2.75 9v16.45l4.48 3.21v7.82h1.92v-7.82l4.48-3.21V9zm-1.92 9.2-2.56 2.56v-2.4l2.56-2.56v2.4zm-7-2.4 2.56 2.56v2.4L4.71 18.2v-2.4zm7-2.72L8.19 16.6 4.67 13v-2.4l3.52 3.52 3.52-3.52v2.48zm-3.52-7.6a3.54 3.54 0 0 1 3.4 2.61l-3.4 3.39-3.4-3.39a3.54 3.54 0 0 1 3.4-2.65v.04zm-3.52 19v-3.6l2.56 2.56v2.86l-2.56-1.82zm4.48 1.83v-2.87l2.56-2.56v3.59l-2.56 1.84z" class="ccustom" stop-color="#ccc"/></svg>