<svg xmlns="http://www.w3.org/2000/svg" width="163" height="42" fill="none"><path fill="#ccc" d="M30.21 17.719c3.138 0 3.844 1.363 3.844 3.063 0 1.802-.854 3.093-3.831 3.093-2.958 0-3.813-1.216-3.813-3.093 0-1.847.932-3.063 3.8-3.063zm32.794 0c3.138 0 3.844 1.363 3.844 3.063 0 1.802-.855 3.093-3.831 3.093-2.957 0-3.813-1.216-3.813-3.093 0-1.847.932-3.063 3.8-3.063z" class="ccustom" stop-color="#ccc"/><path fill="#ccc" fill-rule="evenodd" d="M2.427 38.5V3.047h158.578V38.5H2.427zm75.578-2h81V5.047h-81V36.5zm-47.78-9.607c5.571 0 7.913-2.403 7.913-6.156 0-3.814-2.638-6.081-7.913-6.081-5.194 0-7.928 2.462-7.928 6.081 0 4.084 2.868 6.156 7.928 6.156zM10.856 14.926v11.787H22.1v-3.139h-7.176v-8.648h-4.068zm39.866 11.787-.105-1.142a7.2 7.2 0 0 1-4.685 1.322c-2.507 0-4.595-.751-5.766-2.267a6.2 6.2 0 0 1-1.111-3.784 5.86 5.86 0 0 1 1.145-3.679c1.185-1.471 3.333-2.447 6.531-2.447 3.679 0 5.841 1.126 6.771 3.018.2.446.317.924.346 1.411h-3.892a1.6 1.6 0 0 0-.525-.751 4.138 4.138 0 0 0-2.628-.675 3.87 3.87 0 0 0-3.033.946 3.259 3.259 0 0 0-.615 2.207c-.054.75.147 1.496.57 2.117a3.944 3.944 0 0 0 3.108 1.036 4.34 4.34 0 0 0 3.093-.961 1.89 1.89 0 0 0 .375-.8h-4.188v-2.533h7.837v6.982h-3.228zm12.297.18c5.57 0 7.913-2.403 7.913-6.156 0-3.814-2.642-6.081-7.913-6.081-5.194 0-7.928 2.462-7.928 6.081 0 4.084 2.868 6.156 7.928 6.156z" class="ccustom" clip-rule="evenodd" stop-color="#ccc"/><path fill="#ccc" d="M84.857 26.668V14.881h2.9v11.787h-2.9zm17.792-4.925c-.735.961-2 1.4-3.783 1.411-.376 0-5.361-.015-5.361-.015v3.529h-2.838V14.881h8.2a4.705 4.705 0 0 1 3.648 1.186c.648.844.963 1.897.886 2.958a4.248 4.248 0 0 1-.752 2.718zm-2.327-3.843c-.3-.45-.947-.7-2.042-.7h-4.79v3.588h4.759c1.171 0 1.788-.24 2.073-.706.169-.328.242-.698.21-1.066a2.283 2.283 0 0 0-.21-1.116zm11.442 8.948c-5.346 0-6.982-2-6.982-3.979h3.033c0 .976 1.336 1.712 4.084 1.712 2.732 0 3.453-.481 3.453-1.262 0-.871-.54-1.141-3.078-1.426-.5-.045-1.861-.21-2.372-.285-3.6-.406-4.986-1.472-4.986-3.379 0-2.012 2.028-3.528 6.427-3.528 4.775 0 6.607 1.877 6.607 3.829h-3c0-.991-1.126-1.562-3.784-1.562-2.733 0-3.318.375-3.318 1.111 0 .766.6 1.006 3.5 1.351.661.091 2.132.256 2.537.3 3.064.315 4.445 1.426 4.445 3.393-.005 2.343-2.107 3.725-6.566 3.725zm15.106-.015c-3.918 0-6.471-1.547-6.471-4.8v-7.152h2.867v7.192c0 1.487 1.217 2.477 3.724 2.477 2.267 0 3.619-.93 3.619-2.477v-7.192h2.838V22.3c0 2.957-2.373 4.533-6.577 4.533zm22.117-.165V18.8l-3.679 7.868h-2.792l-3.574-7.868v7.868h-2.7V14.881h3.658l4.054 8.979 4.144-8.979h3.6v11.787h-2.711z" class="ccustom" stop-color="#ccc"/></svg>