<svg width="71" height="71" viewBox="0 0 71 71" fill="none" xmlns="http://www.w3.org/2000/svg">
<path fill-rule="evenodd" clip-rule="evenodd" d="M65.0827 53.25C65.0827 58.1515 61.1092 62.125 56.2077 62.125H14.791C9.88949 62.125 5.91602 58.1515 5.91602 53.25V17.75C5.91602 12.8485 9.88949 8.875 14.791 8.875H56.2077C61.1092 8.875 65.0827 12.8485 65.0827 17.75V53.25ZM47.3327 15.2917C47.3327 15.0155 47.1088 14.7917 46.8327 14.7917H38.9577C38.6815 14.7917 38.4577 15.0155 38.4577 15.2917V21.6875C38.4577 21.9636 38.6815 22.1875 38.9577 22.1875H46.8327C47.1088 22.1875 47.3327 21.9636 47.3327 21.6875V15.2917ZM53.2494 21.6875C53.2494 21.9636 53.4732 22.1875 53.7494 22.1875H58.666C58.9422 22.1875 59.166 21.9636 59.166 21.6875V17.75C59.166 16.1162 57.8415 14.7917 56.2077 14.7917H53.7494C53.4732 14.7917 53.2494 15.0155 53.2494 15.2917V21.6875ZM11.8327 21.6875C11.8327 21.9636 12.0565 22.1875 12.3327 22.1875H17.2493C17.5255 22.1875 17.7493 21.9636 17.7493 21.6875V15.2917C17.7493 15.0155 17.5255 14.7917 17.2493 14.7917H14.791C13.1572 14.7917 11.8327 16.1162 11.8327 17.75V21.6875ZM23.666 21.6875C23.666 21.9636 23.8899 22.1875 24.166 22.1875H32.041C32.3172 22.1875 32.541 21.9636 32.541 21.6875V15.2917C32.541 15.0155 32.3172 14.7917 32.041 14.7917H24.166C23.8899 14.7917 23.666 15.0155 23.666 15.2917V21.6875ZM12.3327 48.8125C12.0565 48.8125 11.8327 49.0364 11.8327 49.3125V53.25C11.8327 54.8838 13.1572 56.2083 14.791 56.2083H17.2493C17.5255 56.2083 17.7493 55.9845 17.7493 55.7083V49.3125C17.7493 49.0364 17.5255 48.8125 17.2493 48.8125H12.3327ZM24.166 48.8125C23.8899 48.8125 23.666 49.0364 23.666 49.3125V55.7083C23.666 55.9845 23.8899 56.2083 24.166 56.2083H32.041C32.3172 56.2083 32.541 55.9845 32.541 55.7083V49.3125C32.541 49.0364 32.3172 48.8125 32.041 48.8125H24.166ZM38.9577 48.8125C38.6815 48.8125 38.4577 49.0364 38.4577 49.3125V55.7083C38.4577 55.9845 38.6815 56.2083 38.9577 56.2083H46.8327C47.1088 56.2083 47.3327 55.9845 47.3327 55.7083V49.3125C47.3327 49.0364 47.1088 48.8125 46.8327 48.8125H38.9577ZM53.7494 48.8125C53.4732 48.8125 53.2494 49.0364 53.2494 49.3125V55.7083C53.2494 55.9845 53.4732 56.2083 53.7494 56.2083H56.2077C57.8415 56.2083 59.166 54.8838 59.166 53.25V49.3125C59.166 49.0364 58.9422 48.8125 58.666 48.8125H53.7494Z" fill="#5472EE"/>
</svg>
