<svg width="71" height="71" viewBox="0 0 71 71" fill="none" xmlns="http://www.w3.org/2000/svg">
<path d="M31.0619 58.8712V12.1295C31.0619 7.69199 29.1685 5.91699 24.4648 5.91699H12.5131C7.80935 5.91699 5.91602 7.69199 5.91602 12.1295V58.8712C5.91602 63.3087 7.80935 65.0837 12.5131 65.0837H24.4648C29.1685 65.0837 31.0619 63.3087 31.0619 58.8712Z" fill="#5472EE"/>
<path d="M65.0833 38.1628V12.1295C65.0833 7.69199 63.19 5.91699 58.4863 5.91699H46.5346C41.8308 5.91699 39.9375 7.69199 39.9375 12.1295V38.1628C39.9375 42.6003 41.8308 44.3753 46.5346 44.3753H58.4863C63.19 44.3753 65.0833 42.6003 65.0833 38.1628Z" fill="#5472EE"/>
</svg>
