<svg width="71" height="71" viewBox="0 0 71 71" fill="none" xmlns="http://www.w3.org/2000/svg">
<path d="M51.8591 22.9866C51.652 22.957 51.4449 22.957 51.2378 22.9866C46.6524 22.8387 43.0137 19.0816 43.0137 14.4666C43.0137 9.76283 46.8299 5.91699 51.5633 5.91699C56.267 5.91699 60.1128 9.73324 60.1128 14.4666C60.0833 19.0816 56.4445 22.8387 51.8591 22.9866Z" fill="#5472EE"/>
<path d="M61.5028 43.4877C58.1895 45.7065 53.5449 46.5348 49.2553 45.9727C50.3795 43.5469 50.9712 40.8548 51.0008 38.0148C51.0008 35.0565 50.3499 32.246 49.1074 29.7906C53.4858 29.199 58.1303 30.0273 61.4733 32.246C66.1474 35.3227 66.1474 40.3815 61.5028 43.4877Z" fill="#5472EE"/>
<path d="M19.0523 22.9866C19.2594 22.957 19.4665 22.957 19.6735 22.9866C24.259 22.8387 27.8977 19.0816 27.8977 14.4666C27.8977 9.73324 24.0815 5.91699 19.3481 5.91699C14.6444 5.91699 10.8281 9.73324 10.8281 14.4666C10.8281 19.0816 14.4669 22.8387 19.0523 22.9866Z" fill="#5472EE"/>
<path d="M19.3776 38.0144C19.3776 40.884 19.9988 43.6056 21.123 46.061C16.9517 46.5048 12.603 45.6173 9.40797 43.5169C4.7338 40.4106 4.7338 35.3519 9.40797 32.2456C12.5734 30.1156 17.0405 29.2577 21.2413 29.731C20.0284 32.216 19.3776 35.0265 19.3776 38.0144Z" fill="#5472EE"/>
<path d="M35.8542 46.9487C35.6176 46.9192 35.3513 46.9192 35.0851 46.9487C29.6417 46.7712 25.293 42.3042 25.293 36.8017C25.3226 31.1808 29.8488 26.625 35.4992 26.625C41.1201 26.625 45.6759 31.1808 45.6759 36.8017C45.6463 42.3042 41.3271 46.7712 35.8542 46.9487Z" fill="#5472EE"/>
<path d="M26.2409 53.0721C21.7739 56.06 21.7739 60.9708 26.2409 63.9292C31.3293 67.3312 39.6718 67.3312 44.7601 63.9292C49.2272 60.9412 49.2272 56.0304 44.7601 53.0721C39.7014 49.67 31.3589 49.67 26.2409 53.0721Z" fill="#5472EE"/>
</svg>
